<svg width="64" height="56" viewBox="0 0 64 56" fill="none" xmlns="http://www.w3.org/2000/svg">
<path d="M0 28C0 12.536 12.536 0 28 0H36C51.464 0 64 12.536 64 28C64 43.464 51.464 56 36 56H28C12.536 56 0 43.464 0 28Z" fill="#155DFC"/>
<path d="M29.3334 28H34.6667" stroke="white" stroke-width="2.66667" stroke-linecap="round" stroke-linejoin="round"/>
<path d="M29.3334 22.6667H34.6667" stroke="white" stroke-width="2.66667" stroke-linecap="round" stroke-linejoin="round"/>
<path d="M34.6667 39.9999V35.9999C34.6667 35.2927 34.3858 34.6144 33.8857 34.1143C33.3856 33.6142 32.7073 33.3333 32 33.3333C31.2928 33.3333 30.6145 33.6142 30.1144 34.1143C29.6143 34.6144 29.3334 35.2927 29.3334 35.9999V39.9999" stroke="white" stroke-width="2.66667" stroke-linecap="round" stroke-linejoin="round"/>
<path d="M24 25.3333H21.3333C20.626 25.3333 19.9478 25.6142 19.4477 26.1143C18.9476 26.6144 18.6666 27.2927 18.6666 27.9999V37.3333C18.6666 38.0405 18.9476 38.7188 19.4477 39.2189C19.9478 39.719 20.626 39.9999 21.3333 39.9999H42.6666C43.3739 39.9999 44.0521 39.719 44.5522 39.2189C45.0523 38.7188 45.3333 38.0405 45.3333 37.3333V23.9999C45.3333 23.2927 45.0523 22.6144 44.5522 22.1143C44.0521 21.6142 43.3739 21.3333 42.6666 21.3333H40" stroke="white" stroke-width="2.66667" stroke-linecap="round" stroke-linejoin="round"/>
<path d="M24 40V18.6667C24 17.9594 24.281 17.2811 24.781 16.781C25.2811 16.281 25.9594 16 26.6667 16H37.3333C38.0406 16 38.7189 16.281 39.219 16.781C39.719 17.2811 40 17.9594 40 18.6667V40" stroke="white" stroke-width="2.66667" stroke-linecap="round" stroke-linejoin="round"/>
</svg>
